<?xml version="1.0" encoding="UTF-8"?>
<svg xmlns="http://www.w3.org/2000/svg" viewBox="0 0 156.25 156.25">
  <g>
    <rect style="fill: #fff;" x="11.68" y="17.15" width="132.89" height="124.85"/>
    <path style="fill: #1296db;" d="M150,0H6.25C2.79,0,0,2.79,0,6.25V150c0,3.46,2.79,6.25,6.25,6.25H150c3.46,0,6.25-2.79,6.25-6.25V6.25c0-3.46-2.79-6.25-6.25-6.25ZM64.1,127.54h-9.92c-.43,0-.88-.21-1.15-.57l-6.93-8.5-6.93,8.5c-.29,.37-.7,.57-1.15,.57h-9.92c-1.29,0-1.99-1.54-1.13-2.56l12.25-15-11.95-14.63c-.84-1.02-.14-2.56,1.15-2.56h9.94c.43,0,.88,.21,1.15,.57l6.64,8.12,6.64-8.12c.29-.37,.7-.57,1.15-.57h9.92c1.29,0,1.99,1.54,1.15,2.56l-11.97,14.61,12.25,15c.82,1.04,.12,2.58-1.17,2.58Zm1.52-74.61c0,.43-.27,.78-.63,.78h-13.44v13.42c0,.37-.35,.64-.78,.64h-9.38c-.43,0-.78-.27-.78-.63v-13.44h-13.44c-.35,0-.62-.35-.62-.78v-9.38c0-.43,.27-.78,.62-.78h13.44v-13.44c0-.35,.35-.63,.78-.63h9.38c.43,0,.78,.27,.78,.63v13.44h13.42c.37,0,.64,.35,.64,.78v9.38Zm64.06,72.07c0,.43-.27,.78-.63,.78h-37.81c-.35,0-.63-.35-.63-.78v-9.38c0-.43,.27-.78,.63-.78h37.79c.37,0,.64,.35,.64,.78v9.38Zm0-20.31c0,.43-.27,.78-.63,.78h-37.81c-.35,0-.63-.35-.63-.78v-9.38c0-.43,.27-.78,.63-.78h37.79c.37,0,.64,.35,.64,.78v9.38Zm0-51.76c0,.43-.27,.78-.63,.78h-37.81c-.35,0-.63-.35-.63-.78v-9.38c0-.43,.27-.78,.63-.78h37.79c.37,0,.64,.35,.64,.78v9.38Z"/>
  </g>
</svg>