<?xml version="1.0" standalone="no"?>
<!DOCTYPE svg PUBLIC "-//W3C//DTD SVG 20010904//EN"
 "http://www.w3.org/TR/2001/REC-SVG-20010904/DTD/svg10.dtd">
<svg version="1.0" xmlns="http://www.w3.org/2000/svg"
 width="700.000000pt" height="700.000000pt" viewBox="0 0 700.000000 700.000000"
 preserveAspectRatio="xMidYMid meet">
<metadata>
Created by potrace 1.14, written by Peter Selinger 2001-2017
</metadata>
<g transform="translate(0.000000,700.000000) scale(0.100000,-0.100000)"
fill="#000000" stroke="none">
<path d="M934 6227 c-77 -16 -148 -91 -162 -170 -4 -23 -7 -1185 -6 -2582 1
-2813 -5 -2575 66 -2644 71 -70 -169 -64 2668 -64 l2565 -1 45 24 c50 26 82
58 107 110 16 33 17 216 17 2589 1 1972 -2 2563 -11 2595 -14 48 -71 111 -122
133 -33 14 -283 16 -2583 17 -1401 1 -2564 -2 -2584 -7z m1634 -1244 c2 -184
5 -243 15 -244 6 0 114 -1 240 -1 137 -1 230 -5 234 -11 8 -14 7 -356 -1 -365
-4 -4 -114 -7 -244 -7 l-237 0 -3 -240 c-2 -164 -6 -241 -14 -246 -17 -11
-357 -9 -364 2 -3 5 -6 116 -6 247 l0 237 -240 0 c-233 -1 -240 0 -247 20 -9
26 -8 336 1 351 5 7 79 11 225 12 120 0 228 1 240 1 21 1 22 2 21 235 0 129 3
240 7 246 4 7 65 10 188 8 l182 -3 3 -242z m2731 -262 c10 -21 8 -348 -3 -358
-9 -10 -1332 -12 -1348 -2 -11 7 -16 348 -5 366 4 6 258 10 677 10 604 0 672
-2 679 -16z m-3168 -1739 c4 -1 60 -67 124 -147 65 -80 121 -145 125 -145 5 0
32 30 61 68 30 37 56 69 59 72 3 3 32 38 64 78 32 39 61 73 65 74 3 0 89 2
191 3 300 4 299 8 28 -324 -110 -135 -207 -253 -214 -261 -10 -13 12 -45 143
-205 85 -104 163 -200 173 -212 115 -136 126 -159 93 -195 -14 -16 -35 -18
-209 -18 l-193 0 -73 88 c-40 48 -77 92 -83 99 -5 6 -20 24 -32 40 -12 15 -34
42 -48 58 l-25 30 -22 -26 c-13 -14 -39 -45 -58 -68 -19 -24 -67 -82 -105
-130 l-71 -86 -184 -3 c-102 -1 -194 0 -206 2 -28 7 -45 46 -31 72 6 10 47 64
91 118 45 55 140 172 212 260 l131 161 -213 260 c-286 350 -287 343 8 340 106
-1 196 -3 199 -3z m3165 -65 c12 -12 11 -357 -1 -366 -15 -12 -1344 -11 -1351
1 -12 19 -8 359 4 367 16 10 1339 8 1348 -2z m1 -710 c10 -11 12 -337 1 -359
-7 -16 -58 -17 -678 -17 -448 0 -671 3 -676 10 -11 18 -8 360 3 367 16 10
1340 8 1350 -1z"/>
</g>
</svg>
